<svg width="2344" height="1014" viewBox="0 0 2344 1014" fill="none" xmlns="http://www.w3.org/2000/svg">
<path d="M2343.5 507C2343.5 576.835 2310.79 643.404 2251.54 703.998C2192.29 764.593 2106.54 819.186 2000.53 865.044C1788.52 956.76 1495.59 1013.5 1172 1013.5C848.413 1013.5 555.483 956.76 343.469 865.044C237.462 819.186 151.706 764.593 92.4591 703.998C33.2146 643.404 0.5 576.835 0.5 507C0.5 437.165 33.2146 370.596 92.4591 310.002C151.706 249.407 237.462 194.814 343.469 148.956C555.483 57.2398 848.413 0.5 1172 0.5C1495.59 0.5 1788.52 57.2398 2000.53 148.956C2106.54 194.814 2192.29 249.407 2251.54 310.002C2310.79 370.596 2343.5 437.165 2343.5 507Z" fill="url(#paint0_radial_1_58)" stroke="#B48CDE"/>
<defs>
<radialGradient id="paint0_radial_1_58" cx="0" cy="0" r="1" gradientUnits="userSpaceOnUse" gradientTransform="translate(1172 507) rotate(90) scale(521 1204.36)">
<stop offset="0.822011"/>
<stop offset="1" stop-color="#9560EB"/>
</radialGradient>
</defs>
</svg>
