<svg width="25" height="25" viewBox="0 0 25 25" fill="none" xmlns="http://www.w3.org/2000/svg">
<path d="M22 12.375C22 12.6734 21.8815 12.9595 21.6705 13.1705C21.4595 13.3815 21.1734 13.5 20.875 13.5H13.75V20.625C13.75 20.9234 13.6315 21.2095 13.4205 21.4205C13.2095 21.6315 12.9234 21.75 12.625 21.75C12.3266 21.75 12.0405 21.6315 11.8295 21.4205C11.6185 21.2095 11.5 20.9234 11.5 20.625V13.5H4.375C4.07663 13.5 3.79048 13.3815 3.5795 13.1705C3.36853 12.9595 3.25 12.6734 3.25 12.375C3.25 12.0766 3.36853 11.7905 3.5795 11.5795C3.79048 11.3685 4.07663 11.25 4.375 11.25H11.5V4.125C11.5 3.82663 11.6185 3.54048 11.8295 3.3295C12.0405 3.11853 12.3266 3 12.625 3C12.9234 3 13.2095 3.11853 13.4205 3.3295C13.6315 3.54048 13.75 3.82663 13.75 4.125V11.25H20.875C21.1734 11.25 21.4595 11.3685 21.6705 11.5795C21.8815 11.7905 22 12.0766 22 12.375Z" fill="white"/>
</svg>
