<svg width="20" height="20" viewBox="0 0 20 20" fill="none" xmlns="http://www.w3.org/2000/svg">
<path d="M17.911 7.06249C18.5831 8.86769 18.6172 10.8485 18.0078 12.6758C17.3984 14.5031 16.1821 16.0669 14.561 17.1073C12.9398 18.1477 11.0115 18.6021 9.09646 18.395C7.18137 18.1879 5.39481 17.3317 4.03363 15.9687C2.5046 14.4448 1.61789 12.3927 1.55597 10.2347C1.49404 8.07681 2.26161 5.97723 3.70072 4.36806C5.13983 2.7589 7.141 1.76256 9.29242 1.58408C11.4438 1.4056 13.5818 2.05856 15.2664 3.40858L16.8368 1.83749C16.924 1.75028 17.0275 1.68111 17.1414 1.63391C17.2554 1.58672 17.3775 1.56243 17.5008 1.56243C17.6241 1.56243 17.7463 1.58672 17.8602 1.63391C17.9741 1.68111 18.0777 1.75028 18.1649 1.83749C18.2521 1.9247 18.3213 2.02823 18.3685 2.14217C18.4157 2.25611 18.4399 2.37823 18.4399 2.50155C18.4399 2.62488 18.4157 2.747 18.3685 2.86094C18.3213 2.97488 18.2521 3.07841 18.1649 3.16562L10.6649 10.6656C10.5777 10.7528 10.4741 10.822 10.3602 10.8692C10.2463 10.9164 10.1241 10.9407 10.0008 10.9407C9.87749 10.9407 9.75537 10.9164 9.64143 10.8692C9.52749 10.822 9.42396 10.7528 9.33676 10.6656C9.24955 10.5784 9.18037 10.4749 9.13318 10.3609C9.08598 10.247 9.06169 10.1249 9.06169 10.0016C9.06169 9.87823 9.08598 9.75611 9.13318 9.64217C9.18037 9.52823 9.24955 9.4247 9.33676 9.33749L11.2118 7.46249C10.6833 7.21001 10.0892 7.1288 9.51238 7.2302C8.93556 7.3316 8.40477 7.61054 7.9941 8.0281C7.58342 8.44566 7.31335 8.98101 7.22156 9.55944C7.12977 10.1379 7.22085 10.7305 7.48208 11.2547C7.74331 11.7789 8.16167 12.2085 8.67877 12.4834C9.19587 12.7584 9.78591 12.8651 10.3666 12.7886C10.9472 12.7122 11.4895 12.4563 11.9178 12.0568C12.346 11.6573 12.6389 11.1341 12.7555 10.5601C12.8046 10.3164 12.9485 10.1021 13.1556 9.96445C13.3627 9.8268 13.616 9.77706 13.8598 9.82616C14.1036 9.87527 14.3179 10.0192 14.4555 10.2263C14.5932 10.4334 14.6429 10.6867 14.5938 10.9305C14.3941 11.9142 13.8839 12.8078 13.1382 13.4799C12.3926 14.1519 11.451 14.5668 10.4518 14.6636C9.45272 14.7603 8.44893 14.5338 7.5882 14.0174C6.72747 13.5009 6.05526 12.7218 5.67051 11.7946C5.28575 10.8675 5.20877 9.84137 5.4509 8.86722C5.69302 7.89307 6.24147 7.02237 7.01551 6.38327C7.78955 5.74417 8.74831 5.37043 9.75068 5.31704C10.753 5.26365 11.7461 5.53344 12.5836 6.08671L13.9297 4.7453C12.6653 3.80097 11.1029 3.34393 9.52882 3.45793C7.95478 3.57194 6.47453 4.24936 5.35936 5.36605C4.24418 6.48274 3.56877 7.9639 3.4569 9.53809C3.34503 11.1123 3.80419 12.6741 4.75024 13.9372C5.69629 15.2004 7.06586 16.0804 8.60796 16.4158C10.1501 16.7513 11.7614 16.5198 13.1467 15.7638C14.532 15.0077 15.5984 13.7778 16.1506 12.2994C16.7028 10.821 16.7037 9.19309 16.1532 7.71405C16.1093 7.59842 16.0888 7.47526 16.0928 7.35166C16.0968 7.22807 16.1252 7.10648 16.1763 6.9939C16.2275 6.88133 16.3004 6.77998 16.3909 6.69571C16.4814 6.61144 16.5877 6.54591 16.7036 6.50288C16.8196 6.45986 16.9429 6.44019 17.0664 6.44502C17.19 6.44985 17.3114 6.47908 17.4236 6.53102C17.5358 6.58297 17.6367 6.6566 17.7203 6.74768C17.804 6.83876 17.8688 6.94548 17.911 7.06171V7.06249Z" fill="white"/>
</svg>
