<svg width="20" height="20" viewBox="0 0 20 20" fill="none" xmlns="http://www.w3.org/2000/svg">
<path d="M17.7673 3.11412C17.7539 2.88477 17.6568 2.66832 17.4943 2.50586C17.3319 2.34341 17.1154 2.24627 16.8861 2.23287C13.7923 2.05084 11.0587 2.41568 8.76105 3.31647C6.56261 4.17818 4.86808 5.51412 3.85871 7.17975C2.48214 9.45397 2.47902 12.2149 3.82355 14.8508L2.46183 16.2126C2.37463 16.2998 2.30545 16.4033 2.25825 16.5172C2.21106 16.6312 2.18677 16.7533 2.18677 16.8766C2.18677 16.9999 2.21106 17.1221 2.25825 17.236C2.30545 17.3499 2.37463 17.4535 2.46183 17.5407C2.63795 17.7168 2.87682 17.8157 3.12589 17.8157C3.24922 17.8157 3.37134 17.7915 3.48528 17.7443C3.59922 17.6971 3.70275 17.6279 3.78996 17.5407L5.15168 16.179C6.45949 16.8462 7.79855 17.1829 9.09308 17.1829C10.4083 17.187 11.6991 16.8274 12.8228 16.1438C14.4884 15.1344 15.8243 13.4391 16.6861 11.2415C17.5845 8.94225 17.9493 6.20787 17.7673 3.11412ZM11.8486 14.5376C10.279 15.4883 8.43761 15.5602 6.55793 14.7657L13.1626 8.161C13.2498 8.07379 13.319 7.97026 13.3662 7.85632C13.4134 7.74238 13.4377 7.62026 13.4377 7.49693C13.4377 7.37361 13.4134 7.25149 13.3662 7.13755C13.319 7.02361 13.2498 6.92008 13.1626 6.83287C13.0754 6.74567 12.9719 6.67649 12.8579 6.62929C12.744 6.5821 12.6219 6.55781 12.4986 6.55781C12.3752 6.55781 12.2531 6.5821 12.1392 6.62929C12.0252 6.67649 11.9217 6.74567 11.8345 6.83287L5.23449 13.4422C4.4423 11.5672 4.51417 9.72115 5.46886 8.15162C7.10246 5.45396 10.9798 3.95475 15.9376 4.06959C16.0454 9.02584 14.5462 12.904 11.8486 14.5376Z" fill="white"/>
</svg>
