<svg width="20" height="20" viewBox="0 0 20 20" fill="none" xmlns="http://www.w3.org/2000/svg">
<path d="M16.25 5.9375H14.0625V4.375C14.0625 3.29756 13.6345 2.26425 12.8726 1.50238C12.1108 0.740512 11.0774 0.3125 10 0.3125C8.92256 0.3125 7.88925 0.740512 7.12738 1.50238C6.36551 2.26425 5.9375 3.29756 5.9375 4.375V5.9375H3.75C3.3356 5.9375 2.93817 6.10212 2.64515 6.39515C2.35212 6.68817 2.1875 7.0856 2.1875 7.5V16.25C2.1875 16.6644 2.35212 17.0618 2.64515 17.3549C2.93817 17.6479 3.3356 17.8125 3.75 17.8125H16.25C16.6644 17.8125 17.0618 17.6479 17.3549 17.3549C17.6479 17.0618 17.8125 16.6644 17.8125 16.25V7.5C17.8125 7.0856 17.6479 6.68817 17.3549 6.39515C17.0618 6.10212 16.6644 5.9375 16.25 5.9375ZM7.8125 4.375C7.8125 3.79484 8.04297 3.23844 8.4532 2.8282C8.86344 2.41797 9.41984 2.1875 10 2.1875C10.5802 2.1875 11.1366 2.41797 11.5468 2.8282C11.957 3.23844 12.1875 3.79484 12.1875 4.375V5.9375H7.8125V4.375ZM15.9375 15.9375H4.0625V7.8125H15.9375V15.9375ZM11.25 11.875C11.25 12.1222 11.1767 12.3639 11.0393 12.5695C10.902 12.775 10.7068 12.9352 10.4784 13.0299C10.2499 13.1245 9.99861 13.1492 9.75614 13.101C9.51366 13.0528 9.29093 12.9337 9.11612 12.7589C8.9413 12.5841 8.82225 12.3613 8.77402 12.1189C8.72579 11.8764 8.75054 11.6251 8.84515 11.3966C8.93976 11.1682 9.09998 10.973 9.30554 10.8357C9.5111 10.6983 9.75277 10.625 10 10.625C10.3315 10.625 10.6495 10.7567 10.8839 10.9911C11.1183 11.2255 11.25 11.5435 11.25 11.875Z" fill="black"/>
</svg>
