<svg width="24" height="24" viewBox="0 0 24 24" fill="none" xmlns="http://www.w3.org/2000/svg">
<path d="M17.6309 7.13598C17.5139 7.07698 17.4009 7.01198 17.2899 6.94098C16.9699 6.73298 16.6759 6.48798 16.4149 6.21098C15.7629 5.47798 15.5189 4.73398 15.4289 4.21298H15.4329C15.3579 3.77998 15.3889 3.50098 15.3939 3.50098H12.4209V14.79C12.4209 14.942 12.4209 15.092 12.4149 15.24C12.4149 15.258 12.4129 15.275 12.4119 15.295C12.4119 15.303 12.4119 15.311 12.4099 15.32V15.326C12.3459 16.149 11.8699 16.886 11.1399 17.294C10.7649 17.503 10.3419 17.613 9.90991 17.613C8.52591 17.613 7.40291 16.503 7.40291 15.134C7.40291 13.764 8.52591 12.655 9.90991 12.655C10.1729 12.654 10.4329 12.695 10.6819 12.775L10.6859 9.80198C9.15591 9.60798 7.61391 10.051 6.43191 11.024C5.91891 11.462 5.48891 11.983 5.15891 12.566C5.03291 12.779 4.55991 13.632 4.50291 15.018C4.46691 15.805 4.70691 16.62 4.82191 16.956V16.964C4.89391 17.162 5.17291 17.839 5.62891 18.409C5.99591 18.867 6.42991 19.269 6.91591 19.602V19.595L6.92291 19.602C8.36191 20.563 9.95791 20.5 9.95791 20.5C10.2339 20.489 11.1589 20.5 12.2099 20.011C13.3749 19.468 14.0379 18.661 14.0379 18.661C14.4619 18.178 14.7989 17.628 15.0349 17.034C15.3039 16.34 15.3939 15.507 15.3939 15.174V9.18398C15.4299 9.20598 15.9099 9.51798 15.9099 9.51798C15.9099 9.51798 16.6019 9.95298 17.6809 10.237C18.4559 10.439 19.4989 10.481 19.4989 10.481V7.58298C19.1329 7.62198 18.3909 7.50798 17.6309 7.13598Z" fill="white"/>
</svg>
