<svg width="1200" height="46" viewBox="0 0 1200 46" fill="none" xmlns="http://www.w3.org/2000/svg">
<rect width="1200" height="46" fill="url(#paint0_linear_28_1026)"/>
<path d="M364.832 28V19.166H361.906V18.2H368.934V19.166H366.008V28H364.832ZM370.3 28V17.92H371.476V22.246C371.709 21.8167 372.041 21.4853 372.47 21.252C372.899 21.0093 373.366 20.888 373.87 20.888C374.673 20.888 375.317 21.14 375.802 21.644C376.287 22.1387 376.53 22.904 376.53 23.94V28H375.368V24.066C375.368 22.6193 374.785 21.896 373.618 21.896C373.011 21.896 372.503 22.1153 372.092 22.554C371.681 22.9833 371.476 23.5993 371.476 24.402V28H370.3ZM379.026 19.516C378.792 19.516 378.596 19.4413 378.438 19.292C378.288 19.1333 378.214 18.9373 378.214 18.704C378.214 18.48 378.288 18.2933 378.438 18.144C378.596 17.9947 378.792 17.92 379.026 17.92C379.25 17.92 379.441 17.9947 379.6 18.144C379.758 18.2933 379.838 18.48 379.838 18.704C379.838 18.9373 379.758 19.1333 379.6 19.292C379.441 19.4413 379.25 19.516 379.026 19.516ZM378.438 28V21.056H379.614V28H378.438ZM384.321 28.168C383.491 28.168 382.8 27.958 382.249 27.538C381.699 27.118 381.377 26.5487 381.283 25.83H382.487C382.562 26.194 382.753 26.5113 383.061 26.782C383.379 27.0433 383.803 27.174 384.335 27.174C384.83 27.174 385.194 27.0713 385.427 26.866C385.661 26.6513 385.777 26.3993 385.777 26.11C385.777 25.69 385.623 25.41 385.315 25.27C385.017 25.13 384.592 25.004 384.041 24.892C383.668 24.8173 383.295 24.71 382.921 24.57C382.548 24.43 382.235 24.234 381.983 23.982C381.731 23.7207 381.605 23.38 381.605 22.96C381.605 22.3533 381.829 21.8587 382.277 21.476C382.735 21.084 383.351 20.888 384.125 20.888C384.863 20.888 385.465 21.0747 385.931 21.448C386.407 21.812 386.683 22.3347 386.757 23.016H385.595C385.549 22.6613 385.395 22.386 385.133 22.19C384.881 21.9847 384.541 21.882 384.111 21.882C383.691 21.882 383.365 21.9707 383.131 22.148C382.907 22.3253 382.795 22.5587 382.795 22.848C382.795 23.128 382.94 23.3473 383.229 23.506C383.528 23.6647 383.929 23.8 384.433 23.912C384.863 24.0053 385.269 24.122 385.651 24.262C386.043 24.3927 386.361 24.5933 386.603 24.864C386.855 25.1253 386.981 25.508 386.981 26.012C386.991 26.6373 386.753 27.1553 386.267 27.566C385.791 27.9673 385.143 28.168 384.321 28.168ZM392.366 31.08V21.056H393.43L393.542 22.204C393.766 21.868 394.084 21.5647 394.494 21.294C394.914 21.0233 395.446 20.888 396.09 20.888C396.781 20.888 397.383 21.0467 397.896 21.364C398.41 21.6813 398.806 22.1153 399.086 22.666C399.376 23.2167 399.52 23.842 399.52 24.542C399.52 25.242 399.376 25.8673 399.086 26.418C398.806 26.9593 398.405 27.3887 397.882 27.706C397.369 28.014 396.767 28.168 396.076 28.168C395.507 28.168 394.998 28.0513 394.55 27.818C394.112 27.5847 393.776 27.258 393.542 26.838V31.08H392.366ZM395.95 27.146C396.417 27.146 396.828 27.0387 397.182 26.824C397.537 26.6 397.817 26.292 398.022 25.9C398.228 25.508 398.33 25.0507 398.33 24.528C398.33 24.0053 398.228 23.548 398.022 23.156C397.817 22.764 397.537 22.4607 397.182 22.246C396.828 22.022 396.417 21.91 395.95 21.91C395.484 21.91 395.073 22.022 394.718 22.246C394.364 22.4607 394.084 22.764 393.878 23.156C393.673 23.548 393.57 24.0053 393.57 24.528C393.57 25.0507 393.673 25.508 393.878 25.9C394.084 26.292 394.364 26.6 394.718 26.824C395.073 27.0387 395.484 27.146 395.95 27.146ZM403.467 28.168C402.889 28.168 402.408 28.07 402.025 27.874C401.643 27.678 401.358 27.4167 401.171 27.09C400.985 26.7633 400.891 26.4087 400.891 26.026C400.891 25.3167 401.162 24.7707 401.703 24.388C402.245 24.0053 402.982 23.814 403.915 23.814H405.791V23.73C405.791 23.1233 405.633 22.666 405.315 22.358C404.998 22.0407 404.573 21.882 404.041 21.882C403.584 21.882 403.187 21.9987 402.851 22.232C402.525 22.456 402.319 22.7873 402.235 23.226H401.031C401.078 22.722 401.246 22.2973 401.535 21.952C401.834 21.6067 402.203 21.3453 402.641 21.168C403.08 20.9813 403.547 20.888 404.041 20.888C405.012 20.888 405.74 21.1493 406.225 21.672C406.72 22.1853 406.967 22.8713 406.967 23.73V28H405.917L405.847 26.754C405.651 27.146 405.362 27.482 404.979 27.762C404.606 28.0327 404.102 28.168 403.467 28.168ZM403.649 27.174C404.097 27.174 404.48 27.0573 404.797 26.824C405.124 26.5907 405.371 26.2873 405.539 25.914C405.707 25.5407 405.791 25.1487 405.791 24.738V24.724H404.013C403.323 24.724 402.833 24.8453 402.543 25.088C402.263 25.3213 402.123 25.6153 402.123 25.97C402.123 26.334 402.254 26.628 402.515 26.852C402.786 27.0667 403.164 27.174 403.649 27.174ZM411.476 25.816C411.084 25.816 410.724 25.7647 410.398 25.662L409.698 26.32C409.8 26.3947 409.926 26.46 410.076 26.516C410.234 26.5627 410.458 26.6093 410.748 26.656C411.037 26.6933 411.443 26.7353 411.966 26.782C412.899 26.8473 413.566 27.062 413.968 27.426C414.369 27.79 414.57 28.266 414.57 28.854C414.57 29.2553 414.458 29.638 414.234 30.002C414.019 30.366 413.683 30.6647 413.226 30.898C412.778 31.1313 412.199 31.248 411.49 31.248C410.864 31.248 410.309 31.164 409.824 30.996C409.338 30.8373 408.96 30.59 408.69 30.254C408.419 29.9273 408.284 29.512 408.284 29.008C408.284 28.7467 408.354 28.462 408.494 28.154C408.634 27.8553 408.895 27.5707 409.278 27.3C409.072 27.216 408.895 27.1273 408.746 27.034C408.606 26.9313 408.475 26.8193 408.354 26.698V26.376L409.544 25.2C408.993 24.7333 408.718 24.1173 408.718 23.352C408.718 22.8947 408.825 22.4793 409.04 22.106C409.254 21.7327 409.567 21.4387 409.978 21.224C410.388 21 410.888 20.888 411.476 20.888C411.877 20.888 412.241 20.944 412.568 21.056H415.13V21.938L413.828 21.994C414.098 22.386 414.234 22.8387 414.234 23.352C414.234 23.8093 414.122 24.2247 413.898 24.598C413.683 24.9713 413.37 25.27 412.96 25.494C412.558 25.7087 412.064 25.816 411.476 25.816ZM411.476 24.85C411.97 24.85 412.362 24.724 412.652 24.472C412.95 24.2107 413.1 23.8373 413.1 23.352C413.1 22.876 412.95 22.512 412.652 22.26C412.362 21.9987 411.97 21.868 411.476 21.868C410.972 21.868 410.57 21.9987 410.272 22.26C409.982 22.512 409.838 22.876 409.838 23.352C409.838 23.8373 409.982 24.2107 410.272 24.472C410.57 24.724 410.972 24.85 411.476 24.85ZM409.432 28.896C409.432 29.3627 409.628 29.708 410.02 29.932C410.412 30.1653 410.902 30.282 411.49 30.282C412.068 30.282 412.53 30.156 412.876 29.904C413.23 29.652 413.408 29.316 413.408 28.896C413.408 28.5973 413.286 28.336 413.044 28.112C412.801 27.8973 412.353 27.7713 411.7 27.734C411.186 27.6967 410.743 27.65 410.37 27.594C409.987 27.7993 409.735 28.0187 409.614 28.252C409.492 28.4947 409.432 28.7093 409.432 28.896ZM419.305 28.168C418.642 28.168 418.054 28.0187 417.541 27.72C417.027 27.412 416.621 26.9873 416.323 26.446C416.033 25.9047 415.889 25.2653 415.889 24.528C415.889 23.8 416.033 23.1653 416.323 22.624C416.612 22.0733 417.013 21.6487 417.527 21.35C418.049 21.042 418.651 20.888 419.333 20.888C420.005 20.888 420.583 21.042 421.069 21.35C421.563 21.6487 421.941 22.0453 422.203 22.54C422.464 23.0347 422.595 23.5667 422.595 24.136C422.595 24.2387 422.59 24.3413 422.581 24.444C422.581 24.5467 422.581 24.6633 422.581 24.794H417.051C417.079 25.326 417.2 25.7693 417.415 26.124C417.639 26.4693 417.914 26.7307 418.241 26.908C418.577 27.0853 418.931 27.174 419.305 27.174C419.79 27.174 420.196 27.062 420.523 26.838C420.849 26.614 421.087 26.3107 421.237 25.928H422.399C422.212 26.572 421.853 27.1087 421.321 27.538C420.798 27.958 420.126 28.168 419.305 28.168ZM419.305 21.882C418.745 21.882 418.245 22.0547 417.807 22.4C417.377 22.736 417.13 23.2307 417.065 23.884H421.433C421.405 23.2587 421.19 22.7687 420.789 22.414C420.387 22.0593 419.893 21.882 419.305 21.882ZM428.573 19.516C428.339 19.516 428.143 19.4413 427.985 19.292C427.835 19.1333 427.761 18.9373 427.761 18.704C427.761 18.48 427.835 18.2933 427.985 18.144C428.143 17.9947 428.339 17.92 428.573 17.92C428.797 17.92 428.988 17.9947 429.147 18.144C429.305 18.2933 429.385 18.48 429.385 18.704C429.385 18.9373 429.305 19.1333 429.147 19.292C428.988 19.4413 428.797 19.516 428.573 19.516ZM427.985 28V21.056H429.161V28H427.985ZM433.868 28.168C433.038 28.168 432.347 27.958 431.796 27.538C431.246 27.118 430.924 26.5487 430.83 25.83H432.034C432.109 26.194 432.3 26.5113 432.608 26.782C432.926 27.0433 433.35 27.174 433.882 27.174C434.377 27.174 434.741 27.0713 434.974 26.866C435.208 26.6513 435.324 26.3993 435.324 26.11C435.324 25.69 435.17 25.41 434.862 25.27C434.564 25.13 434.139 25.004 433.588 24.892C433.215 24.8173 432.842 24.71 432.468 24.57C432.095 24.43 431.782 24.234 431.53 23.982C431.278 23.7207 431.152 23.38 431.152 22.96C431.152 22.3533 431.376 21.8587 431.824 21.476C432.282 21.084 432.898 20.888 433.672 20.888C434.41 20.888 435.012 21.0747 435.478 21.448C435.954 21.812 436.23 22.3347 436.304 23.016H435.142C435.096 22.6613 434.942 22.386 434.68 22.19C434.428 21.9847 434.088 21.882 433.658 21.882C433.238 21.882 432.912 21.9707 432.678 22.148C432.454 22.3253 432.342 22.5587 432.342 22.848C432.342 23.128 432.487 23.3473 432.776 23.506C433.075 23.6647 433.476 23.8 433.98 23.912C434.41 24.0053 434.816 24.122 435.198 24.262C435.59 24.3927 435.908 24.5933 436.15 24.864C436.402 25.1253 436.528 25.508 436.528 26.012C436.538 26.6373 436.3 27.1553 435.814 27.566C435.338 27.9673 434.69 28.168 433.868 28.168ZM442.627 19.516C442.394 19.516 442.198 19.4413 442.039 19.292C441.89 19.1333 441.815 18.9373 441.815 18.704C441.815 18.48 441.89 18.2933 442.039 18.144C442.198 17.9947 442.394 17.92 442.627 17.92C442.851 17.92 443.043 17.9947 443.201 18.144C443.36 18.2933 443.439 18.48 443.439 18.704C443.439 18.9373 443.36 19.1333 443.201 19.292C443.043 19.4413 442.851 19.516 442.627 19.516ZM442.039 28V21.056H443.215V28H442.039ZM445.263 28V21.056H446.327L446.397 22.302C446.621 21.8633 446.943 21.518 447.363 21.266C447.783 21.014 448.259 20.888 448.791 20.888C449.612 20.888 450.266 21.14 450.751 21.644C451.246 22.1387 451.493 22.904 451.493 23.94V28H450.317V24.066C450.317 22.6193 449.72 21.896 448.525 21.896C447.928 21.896 447.428 22.1153 447.027 22.554C446.635 22.9833 446.439 23.5993 446.439 24.402V28H445.263ZM456.467 28.168C455.804 28.168 455.207 28.0187 454.675 27.72C454.152 27.412 453.737 26.9873 453.429 26.446C453.13 25.8953 452.981 25.256 452.981 24.528C452.981 23.8 453.13 23.1653 453.429 22.624C453.737 22.0733 454.152 21.6487 454.675 21.35C455.207 21.042 455.804 20.888 456.467 20.888C457.288 20.888 457.979 21.1027 458.539 21.532C459.108 21.9613 459.467 22.5353 459.617 23.254H458.413C458.319 22.8247 458.091 22.4933 457.727 22.26C457.363 22.0173 456.938 21.896 456.453 21.896C456.061 21.896 455.692 21.994 455.347 22.19C455.001 22.386 454.721 22.68 454.507 23.072C454.292 23.464 454.185 23.9493 454.185 24.528C454.185 25.1067 454.292 25.592 454.507 25.984C454.721 26.376 455.001 26.6747 455.347 26.88C455.692 27.076 456.061 27.174 456.453 27.174C456.938 27.174 457.363 27.0573 457.727 26.824C458.091 26.5813 458.319 26.2407 458.413 25.802H459.617C459.477 26.502 459.122 27.0713 458.553 27.51C457.983 27.9487 457.288 28.168 456.467 28.168ZM461.259 28V17.92H462.435V28H461.259ZM466.896 28.168C466.075 28.168 465.422 27.9207 464.936 27.426C464.451 26.922 464.208 26.152 464.208 25.116V21.056H465.384V24.99C465.384 26.4367 465.977 27.16 467.162 27.16C467.769 27.16 468.268 26.9453 468.66 26.516C469.062 26.0773 469.262 25.4567 469.262 24.654V21.056H470.438V28H469.374L469.29 26.754C469.076 27.1927 468.754 27.538 468.324 27.79C467.904 28.042 467.428 28.168 466.896 28.168ZM475.524 28.168C474.834 28.168 474.227 28.0093 473.704 27.692C473.191 27.3747 472.79 26.9407 472.5 26.39C472.22 25.8393 472.08 25.214 472.08 24.514C472.08 23.814 472.225 23.1933 472.514 22.652C472.804 22.1013 473.205 21.672 473.718 21.364C474.232 21.0467 474.838 20.888 475.538 20.888C476.108 20.888 476.612 21.0047 477.05 21.238C477.489 21.4713 477.83 21.798 478.072 22.218V17.92H479.248V28H478.184L478.072 26.852C477.848 27.188 477.526 27.4913 477.106 27.762C476.686 28.0327 476.159 28.168 475.524 28.168ZM475.65 27.146C476.117 27.146 476.528 27.0387 476.882 26.824C477.246 26.6 477.526 26.292 477.722 25.9C477.928 25.508 478.03 25.0507 478.03 24.528C478.03 24.0053 477.928 23.548 477.722 23.156C477.526 22.764 477.246 22.4607 476.882 22.246C476.528 22.022 476.117 21.91 475.65 21.91C475.193 21.91 474.782 22.022 474.418 22.246C474.064 22.4607 473.784 22.764 473.578 23.156C473.382 23.548 473.284 24.0053 473.284 24.528C473.284 25.0507 473.382 25.508 473.578 25.9C473.784 26.292 474.064 26.6 474.418 26.824C474.782 27.0387 475.193 27.146 475.65 27.146ZM484.287 28.168C483.625 28.168 483.037 28.0187 482.523 27.72C482.01 27.412 481.604 26.9873 481.305 26.446C481.016 25.9047 480.871 25.2653 480.871 24.528C480.871 23.8 481.016 23.1653 481.305 22.624C481.595 22.0733 481.996 21.6487 482.509 21.35C483.032 21.042 483.634 20.888 484.315 20.888C484.987 20.888 485.566 21.042 486.051 21.35C486.546 21.6487 486.924 22.0453 487.185 22.54C487.447 23.0347 487.577 23.5667 487.577 24.136C487.577 24.2387 487.573 24.3413 487.563 24.444C487.563 24.5467 487.563 24.6633 487.563 24.794H482.033C482.061 25.326 482.183 25.7693 482.397 26.124C482.621 26.4693 482.897 26.7307 483.223 26.908C483.559 27.0853 483.914 27.174 484.287 27.174C484.773 27.174 485.179 27.062 485.505 26.838C485.832 26.614 486.07 26.3107 486.219 25.928H487.381C487.195 26.572 486.835 27.1087 486.303 27.538C485.781 27.958 485.109 28.168 484.287 28.168ZM484.287 21.882C483.727 21.882 483.228 22.0547 482.789 22.4C482.36 22.736 482.113 23.2307 482.047 23.884H486.415C486.387 23.2587 486.173 22.7687 485.771 22.414C485.37 22.0593 484.875 21.882 484.287 21.882ZM492.286 28.168C491.595 28.168 490.989 28.0093 490.466 27.692C489.953 27.3747 489.551 26.9407 489.262 26.39C488.982 25.8393 488.842 25.214 488.842 24.514C488.842 23.814 488.987 23.1933 489.276 22.652C489.565 22.1013 489.967 21.672 490.48 21.364C490.993 21.0467 491.6 20.888 492.3 20.888C492.869 20.888 493.373 21.0047 493.812 21.238C494.251 21.4713 494.591 21.798 494.834 22.218V17.92H496.01V28H494.946L494.834 26.852C494.61 27.188 494.288 27.4913 493.868 27.762C493.448 28.0327 492.921 28.168 492.286 28.168ZM492.412 27.146C492.879 27.146 493.289 27.0387 493.644 26.824C494.008 26.6 494.288 26.292 494.484 25.9C494.689 25.508 494.792 25.0507 494.792 24.528C494.792 24.0053 494.689 23.548 494.484 23.156C494.288 22.764 494.008 22.4607 493.644 22.246C493.289 22.022 492.879 21.91 492.412 21.91C491.955 21.91 491.544 22.022 491.18 22.246C490.825 22.4607 490.545 22.764 490.34 23.156C490.144 23.548 490.046 24.0053 490.046 24.528C490.046 25.0507 490.144 25.508 490.34 25.9C490.545 26.292 490.825 26.6 491.18 26.824C491.544 27.0387 491.955 27.146 492.412 27.146ZM502.346 19.516C502.113 19.516 501.917 19.4413 501.758 19.292C501.609 19.1333 501.534 18.9373 501.534 18.704C501.534 18.48 501.609 18.2933 501.758 18.144C501.917 17.9947 502.113 17.92 502.346 17.92C502.57 17.92 502.761 17.9947 502.92 18.144C503.079 18.2933 503.158 18.48 503.158 18.704C503.158 18.9373 503.079 19.1333 502.92 19.292C502.761 19.4413 502.57 19.516 502.346 19.516ZM501.758 28V21.056H502.934V28H501.758ZM504.982 28V21.056H506.046L506.116 22.302C506.34 21.8633 506.662 21.518 507.082 21.266C507.502 21.014 507.978 20.888 508.51 20.888C509.331 20.888 509.984 21.14 510.47 21.644C510.964 22.1387 511.212 22.904 511.212 23.94V28H510.036V24.066C510.036 22.6193 509.438 21.896 508.244 21.896C507.646 21.896 507.147 22.1153 506.746 22.554C506.354 22.9833 506.158 23.5993 506.158 24.402V28H504.982ZM519.008 28.168C518.43 28.168 517.949 28.07 517.566 27.874C517.184 27.678 516.899 27.4167 516.712 27.09C516.526 26.7633 516.432 26.4087 516.432 26.026C516.432 25.3167 516.703 24.7707 517.244 24.388C517.786 24.0053 518.523 23.814 519.456 23.814H521.332V23.73C521.332 23.1233 521.174 22.666 520.856 22.358C520.539 22.0407 520.114 21.882 519.582 21.882C519.125 21.882 518.728 21.9987 518.392 22.232C518.066 22.456 517.86 22.7873 517.776 23.226H516.572C516.619 22.722 516.787 22.2973 517.076 21.952C517.375 21.6067 517.744 21.3453 518.182 21.168C518.621 20.9813 519.088 20.888 519.582 20.888C520.553 20.888 521.281 21.1493 521.766 21.672C522.261 22.1853 522.508 22.8713 522.508 23.73V28H521.458L521.388 26.754C521.192 27.146 520.903 27.482 520.52 27.762C520.147 28.0327 519.643 28.168 519.008 28.168ZM519.19 27.174C519.638 27.174 520.021 27.0573 520.338 26.824C520.665 26.5907 520.912 26.2873 521.08 25.914C521.248 25.5407 521.332 25.1487 521.332 24.738V24.724H519.554C518.864 24.724 518.374 24.8453 518.084 25.088C517.804 25.3213 517.664 25.6153 517.664 25.97C517.664 26.334 517.795 26.628 518.056 26.852C518.327 27.0667 518.705 27.174 519.19 27.174ZM528.356 28V22.05H527.306V21.056H528.356V19.852C528.356 19.18 528.524 18.69 528.86 18.382C529.196 18.074 529.686 17.92 530.33 17.92H531.03V18.928H530.512C530.157 18.928 529.905 19.0027 529.756 19.152C529.606 19.292 529.532 19.5347 529.532 19.88V21.056H531.24V22.05H529.532V28H528.356ZM532.64 28V21.056H533.704L533.802 22.386C534.016 21.9287 534.343 21.5647 534.782 21.294C535.22 21.0233 535.762 20.888 536.406 20.888V22.12H536.084C535.673 22.12 535.295 22.1947 534.95 22.344C534.604 22.484 534.329 22.7267 534.124 23.072C533.918 23.4173 533.816 23.8933 533.816 24.5V28H532.64ZM540.588 28.168C539.925 28.168 539.337 28.0187 538.824 27.72C538.311 27.412 537.905 26.9873 537.606 26.446C537.317 25.9047 537.172 25.2653 537.172 24.528C537.172 23.8 537.317 23.1653 537.606 22.624C537.895 22.0733 538.297 21.6487 538.81 21.35C539.333 21.042 539.935 20.888 540.616 20.888C541.288 20.888 541.867 21.042 542.352 21.35C542.847 21.6487 543.225 22.0453 543.486 22.54C543.747 23.0347 543.878 23.5667 543.878 24.136C543.878 24.2387 543.873 24.3413 543.864 24.444C543.864 24.5467 543.864 24.6633 543.864 24.794H538.334C538.362 25.326 538.483 25.7693 538.698 26.124C538.922 26.4693 539.197 26.7307 539.524 26.908C539.86 27.0853 540.215 27.174 540.588 27.174C541.073 27.174 541.479 27.062 541.806 26.838C542.133 26.614 542.371 26.3107 542.52 25.928H543.682C543.495 26.572 543.136 27.1087 542.604 27.538C542.081 27.958 541.409 28.168 540.588 28.168ZM540.588 21.882C540.028 21.882 539.529 22.0547 539.09 22.4C538.661 22.736 538.413 23.2307 538.348 23.884H542.716C542.688 23.2587 542.473 22.7687 542.072 22.414C541.671 22.0593 541.176 21.882 540.588 21.882ZM548.559 28.168C547.896 28.168 547.308 28.0187 546.795 27.72C546.281 27.412 545.875 26.9873 545.577 26.446C545.287 25.9047 545.143 25.2653 545.143 24.528C545.143 23.8 545.287 23.1653 545.577 22.624C545.866 22.0733 546.267 21.6487 546.781 21.35C547.303 21.042 547.905 20.888 548.587 20.888C549.259 20.888 549.837 21.042 550.323 21.35C550.817 21.6487 551.195 22.0453 551.457 22.54C551.718 23.0347 551.849 23.5667 551.849 24.136C551.849 24.2387 551.844 24.3413 551.835 24.444C551.835 24.5467 551.835 24.6633 551.835 24.794H546.305C546.333 25.326 546.454 25.7693 546.669 26.124C546.893 26.4693 547.168 26.7307 547.495 26.908C547.831 27.0853 548.185 27.174 548.559 27.174C549.044 27.174 549.45 27.062 549.777 26.838C550.103 26.614 550.341 26.3107 550.491 25.928H551.653C551.466 26.572 551.107 27.1087 550.575 27.538C550.052 27.958 549.38 28.168 548.559 28.168ZM548.559 21.882C547.999 21.882 547.499 22.0547 547.061 22.4C546.631 22.736 546.384 23.2307 546.319 23.884H550.687C550.659 23.2587 550.444 22.7687 550.043 22.414C549.641 22.0593 549.147 21.882 548.559 21.882ZM560.304 28.168C559.586 28.168 558.96 28.0373 558.428 27.776C557.896 27.5147 557.486 27.1507 557.196 26.684C556.907 26.2173 556.762 25.676 556.762 25.06H557.994C557.994 25.4427 558.083 25.7973 558.26 26.124C558.438 26.4413 558.694 26.698 559.03 26.894C559.376 27.0807 559.8 27.174 560.304 27.174C560.967 27.174 561.48 27.0153 561.844 26.698C562.208 26.3807 562.39 25.984 562.39 25.508C562.39 25.116 562.306 24.8033 562.138 24.57C561.97 24.3273 561.742 24.1313 561.452 23.982C561.172 23.8327 560.846 23.702 560.472 23.59C560.108 23.478 559.726 23.352 559.324 23.212C558.568 22.9507 558.008 22.6287 557.644 22.246C557.28 21.854 557.098 21.3453 557.098 20.72C557.089 20.1973 557.21 19.7353 557.462 19.334C557.714 18.9233 558.069 18.606 558.526 18.382C558.993 18.1487 559.544 18.032 560.178 18.032C560.804 18.032 561.345 18.1487 561.802 18.382C562.269 18.6153 562.628 18.9373 562.88 19.348C563.142 19.7587 563.277 20.2253 563.286 20.748H562.054C562.054 20.4773 561.984 20.2113 561.844 19.95C561.704 19.6793 561.49 19.46 561.2 19.292C560.92 19.124 560.566 19.04 560.136 19.04C559.604 19.0307 559.166 19.166 558.82 19.446C558.484 19.726 558.316 20.1133 558.316 20.608C558.316 21.028 558.433 21.35 558.666 21.574C558.909 21.798 559.245 21.9847 559.674 22.134C560.104 22.274 560.598 22.4373 561.158 22.624C561.625 22.792 562.045 22.988 562.418 23.212C562.792 23.436 563.081 23.7253 563.286 24.08C563.501 24.4347 563.608 24.8873 563.608 25.438C563.608 25.9047 563.487 26.348 563.244 26.768C563.002 27.1787 562.633 27.5147 562.138 27.776C561.653 28.0373 561.042 28.168 560.304 28.168ZM567.516 28.168C566.938 28.168 566.457 28.07 566.074 27.874C565.692 27.678 565.407 27.4167 565.22 27.09C565.034 26.7633 564.94 26.4087 564.94 26.026C564.94 25.3167 565.211 24.7707 565.752 24.388C566.294 24.0053 567.031 23.814 567.964 23.814H569.84V23.73C569.84 23.1233 569.682 22.666 569.364 22.358C569.047 22.0407 568.622 21.882 568.09 21.882C567.633 21.882 567.236 21.9987 566.9 22.232C566.574 22.456 566.368 22.7873 566.284 23.226H565.08C565.127 22.722 565.295 22.2973 565.584 21.952C565.883 21.6067 566.252 21.3453 566.69 21.168C567.129 20.9813 567.596 20.888 568.09 20.888C569.061 20.888 569.789 21.1493 570.274 21.672C570.769 22.1853 571.016 22.8713 571.016 23.73V28H569.966L569.896 26.754C569.7 27.146 569.411 27.482 569.028 27.762C568.655 28.0327 568.151 28.168 567.516 28.168ZM567.698 27.174C568.146 27.174 568.529 27.0573 568.846 26.824C569.173 26.5907 569.42 26.2873 569.588 25.914C569.756 25.5407 569.84 25.1487 569.84 24.738V24.724H568.062C567.372 24.724 566.882 24.8453 566.592 25.088C566.312 25.3213 566.172 25.6153 566.172 25.97C566.172 26.334 566.303 26.628 566.564 26.852C566.835 27.0667 567.213 27.174 567.698 27.174ZM575.09 28.168C574.512 28.168 574.031 28.07 573.648 27.874C573.266 27.678 572.981 27.4167 572.794 27.09C572.608 26.7633 572.514 26.4087 572.514 26.026C572.514 25.3167 572.785 24.7707 573.326 24.388C573.868 24.0053 574.605 23.814 575.538 23.814H577.414V23.73C577.414 23.1233 577.256 22.666 576.938 22.358C576.621 22.0407 576.196 21.882 575.664 21.882C575.207 21.882 574.81 21.9987 574.474 22.232C574.148 22.456 573.942 22.7873 573.858 23.226H572.654C572.701 22.722 572.869 22.2973 573.158 21.952C573.457 21.6067 573.826 21.3453 574.264 21.168C574.703 20.9813 575.17 20.888 575.664 20.888C576.635 20.888 577.363 21.1493 577.848 21.672C578.343 22.1853 578.59 22.8713 578.59 23.73V28H577.54L577.47 26.754C577.274 27.146 576.985 27.482 576.602 27.762C576.229 28.0327 575.725 28.168 575.09 28.168ZM575.272 27.174C575.72 27.174 576.103 27.0573 576.42 26.824C576.747 26.5907 576.994 26.2873 577.162 25.914C577.33 25.5407 577.414 25.1487 577.414 24.738V24.724H575.636C574.946 24.724 574.456 24.8453 574.166 25.088C573.886 25.3213 573.746 25.6153 573.746 25.97C573.746 26.334 573.877 26.628 574.138 26.852C574.409 27.0667 574.787 27.174 575.272 27.174ZM583.547 28.168C582.828 28.168 582.203 28.0373 581.671 27.776C581.139 27.5147 580.728 27.1507 580.439 26.684C580.149 26.2173 580.005 25.676 580.005 25.06H581.237C581.237 25.4427 581.325 25.7973 581.503 26.124C581.68 26.4413 581.937 26.698 582.273 26.894C582.618 27.0807 583.043 27.174 583.547 27.174C584.209 27.174 584.723 27.0153 585.087 26.698C585.451 26.3807 585.633 25.984 585.633 25.508C585.633 25.116 585.549 24.8033 585.381 24.57C585.213 24.3273 584.984 24.1313 584.695 23.982C584.415 23.8327 584.088 23.702 583.715 23.59C583.351 23.478 582.968 23.352 582.567 23.212C581.811 22.9507 581.251 22.6287 580.887 22.246C580.523 21.854 580.341 21.3453 580.341 20.72C580.331 20.1973 580.453 19.7353 580.705 19.334C580.957 18.9233 581.311 18.606 581.769 18.382C582.235 18.1487 582.786 18.032 583.421 18.032C584.046 18.032 584.587 18.1487 585.045 18.382C585.511 18.6153 585.871 18.9373 586.123 19.348C586.384 19.7587 586.519 20.2253 586.529 20.748H585.297C585.297 20.4773 585.227 20.2113 585.087 19.95C584.947 19.6793 584.732 19.46 584.443 19.292C584.163 19.124 583.808 19.04 583.379 19.04C582.847 19.0307 582.408 19.166 582.063 19.446C581.727 19.726 581.559 20.1133 581.559 20.608C581.559 21.028 581.675 21.35 581.909 21.574C582.151 21.798 582.487 21.9847 582.917 22.134C583.346 22.274 583.841 22.4373 584.401 22.624C584.867 22.792 585.287 22.988 585.661 23.212C586.034 23.436 586.323 23.7253 586.529 24.08C586.743 24.4347 586.851 24.8873 586.851 25.438C586.851 25.9047 586.729 26.348 586.487 26.768C586.244 27.1787 585.875 27.5147 585.381 27.776C584.895 28.0373 584.284 28.168 583.547 28.168ZM594.24 28.014L591.552 18.2H592.812L594.926 26.614L597.334 18.2H598.636L600.974 26.614L603.116 18.2H604.376L601.632 28H600.288L597.95 19.908L595.556 28L594.24 28.014ZM608.1 28.168C607.437 28.168 606.849 28.0187 606.336 27.72C605.822 27.412 605.416 26.9873 605.118 26.446C604.828 25.9047 604.684 25.2653 604.684 24.528C604.684 23.8 604.828 23.1653 605.118 22.624C605.407 22.0733 605.808 21.6487 606.322 21.35C606.844 21.042 607.446 20.888 608.128 20.888C608.8 20.888 609.378 21.042 609.864 21.35C610.358 21.6487 610.736 22.0453 610.998 22.54C611.259 23.0347 611.39 23.5667 611.39 24.136C611.39 24.2387 611.385 24.3413 611.376 24.444C611.376 24.5467 611.376 24.6633 611.376 24.794H605.846C605.874 25.326 605.995 25.7693 606.21 26.124C606.434 26.4693 606.709 26.7307 607.036 26.908C607.372 27.0853 607.726 27.174 608.1 27.174C608.585 27.174 608.991 27.062 609.318 26.838C609.644 26.614 609.882 26.3107 610.032 25.928H611.194C611.007 26.572 610.648 27.1087 610.116 27.538C609.593 27.958 608.921 28.168 608.1 28.168ZM608.1 21.882C607.54 21.882 607.04 22.0547 606.602 22.4C606.172 22.736 605.925 23.2307 605.86 23.884H610.228C610.2 23.2587 609.985 22.7687 609.584 22.414C609.182 22.0593 608.688 21.882 608.1 21.882ZM616.658 28.168C616.089 28.168 615.58 28.0513 615.132 27.818C614.694 27.5847 614.358 27.258 614.124 26.838L614.012 28H612.948V17.92H614.124V22.204C614.348 21.868 614.666 21.5647 615.076 21.294C615.496 21.0233 616.028 20.888 616.672 20.888C617.363 20.888 617.965 21.0467 618.478 21.364C618.992 21.6813 619.388 22.1153 619.668 22.666C619.958 23.2167 620.102 23.842 620.102 24.542C620.102 25.242 619.958 25.8673 619.668 26.418C619.388 26.9593 618.987 27.3887 618.464 27.706C617.951 28.014 617.349 28.168 616.658 28.168ZM616.532 27.146C616.999 27.146 617.41 27.0387 617.764 26.824C618.119 26.6 618.399 26.292 618.604 25.9C618.81 25.508 618.912 25.0507 618.912 24.528C618.912 24.0053 618.81 23.548 618.604 23.156C618.399 22.764 618.119 22.4607 617.764 22.246C617.41 22.022 616.999 21.91 616.532 21.91C616.066 21.91 615.655 22.022 615.3 22.246C614.946 22.4607 614.666 22.764 614.46 23.156C614.255 23.548 614.152 24.0053 614.152 24.528C614.152 25.0507 614.255 25.508 614.46 25.9C614.666 26.292 614.946 26.6 615.3 26.824C615.655 27.0387 616.066 27.146 616.532 27.146ZM624.399 28.168C623.569 28.168 622.878 27.958 622.327 27.538C621.777 27.118 621.455 26.5487 621.361 25.83H622.565C622.64 26.194 622.831 26.5113 623.139 26.782C623.457 27.0433 623.881 27.174 624.413 27.174C624.908 27.174 625.272 27.0713 625.505 26.866C625.739 26.6513 625.855 26.3993 625.855 26.11C625.855 25.69 625.701 25.41 625.393 25.27C625.095 25.13 624.67 25.004 624.119 24.892C623.746 24.8173 623.373 24.71 622.999 24.57C622.626 24.43 622.313 24.234 622.061 23.982C621.809 23.7207 621.683 23.38 621.683 22.96C621.683 22.3533 621.907 21.8587 622.355 21.476C622.813 21.084 623.429 20.888 624.203 20.888C624.941 20.888 625.543 21.0747 626.009 21.448C626.485 21.812 626.761 22.3347 626.835 23.016H625.673C625.627 22.6613 625.473 22.386 625.211 22.19C624.959 21.9847 624.619 21.882 624.189 21.882C623.769 21.882 623.443 21.9707 623.209 22.148C622.985 22.3253 622.873 22.5587 622.873 22.848C622.873 23.128 623.018 23.3473 623.307 23.506C623.606 23.6647 624.007 23.8 624.511 23.912C624.941 24.0053 625.347 24.122 625.729 24.262C626.121 24.3927 626.439 24.5933 626.681 24.864C626.933 25.1253 627.059 25.508 627.059 26.012C627.069 26.6373 626.831 27.1553 626.345 27.566C625.869 27.9673 625.221 28.168 624.399 28.168ZM629.453 19.516C629.22 19.516 629.024 19.4413 628.865 19.292C628.716 19.1333 628.641 18.9373 628.641 18.704C628.641 18.48 628.716 18.2933 628.865 18.144C629.024 17.9947 629.22 17.92 629.453 17.92C629.677 17.92 629.869 17.9947 630.027 18.144C630.186 18.2933 630.265 18.48 630.265 18.704C630.265 18.9373 630.186 19.1333 630.027 19.292C629.869 19.4413 629.677 19.516 629.453 19.516ZM628.865 28V21.056H630.041V28H628.865ZM634.833 28C634.198 28 633.699 27.846 633.335 27.538C632.971 27.23 632.789 26.6747 632.789 25.872V22.05H631.585V21.056H632.789L632.943 19.39H633.965V21.056H636.009V22.05H633.965V25.872C633.965 26.3107 634.054 26.6093 634.231 26.768C634.408 26.9173 634.721 26.992 635.169 26.992H635.897V28H634.833ZM640.434 28.168C639.771 28.168 639.183 28.0187 638.67 27.72C638.156 27.412 637.75 26.9873 637.452 26.446C637.162 25.9047 637.018 25.2653 637.018 24.528C637.018 23.8 637.162 23.1653 637.452 22.624C637.741 22.0733 638.142 21.6487 638.656 21.35C639.178 21.042 639.78 20.888 640.462 20.888C641.134 20.888 641.712 21.042 642.198 21.35C642.692 21.6487 643.07 22.0453 643.332 22.54C643.593 23.0347 643.724 23.5667 643.724 24.136C643.724 24.2387 643.719 24.3413 643.71 24.444C643.71 24.5467 643.71 24.6633 643.71 24.794H638.18C638.208 25.326 638.329 25.7693 638.544 26.124C638.768 26.4693 639.043 26.7307 639.37 26.908C639.706 27.0853 640.06 27.174 640.434 27.174C640.919 27.174 641.325 27.062 641.652 26.838C641.978 26.614 642.216 26.3107 642.366 25.928H643.528C643.341 26.572 642.982 27.1087 642.45 27.538C641.927 27.958 641.255 28.168 640.434 28.168ZM640.434 21.882C639.874 21.882 639.374 22.0547 638.936 22.4C638.506 22.736 638.259 23.2307 638.194 23.884H642.562C642.534 23.2587 642.319 22.7687 641.918 22.414C641.516 22.0593 641.022 21.882 640.434 21.882ZM649.057 28V18.2H650.233V22.638L654.321 18.2H655.805L652.165 22.106L655.861 28H654.433L651.325 23.016L650.233 24.178V28H649.057ZM657.85 19.516C657.617 19.516 657.421 19.4413 657.262 19.292C657.113 19.1333 657.038 18.9373 657.038 18.704C657.038 18.48 657.113 18.2933 657.262 18.144C657.421 17.9947 657.617 17.92 657.85 17.92C658.074 17.92 658.265 17.9947 658.424 18.144C658.583 18.2933 658.662 18.48 658.662 18.704C658.662 18.9373 658.583 19.1333 658.424 19.292C658.265 19.4413 658.074 19.516 657.85 19.516ZM657.262 28V21.056H658.438V28H657.262ZM663.23 28C662.595 28 662.096 27.846 661.732 27.538C661.368 27.23 661.186 26.6747 661.186 25.872V22.05H659.982V21.056H661.186L661.34 19.39H662.362V21.056H664.406V22.05H662.362V25.872C662.362 26.3107 662.45 26.6093 662.628 26.768C662.805 26.9173 663.118 26.992 663.566 26.992H664.294V28H663.23ZM666.306 28.07C666.072 28.07 665.876 27.9953 665.718 27.846C665.568 27.6873 665.494 27.496 665.494 27.272C665.494 27.048 665.568 26.8613 665.718 26.712C665.876 26.5533 666.072 26.474 666.306 26.474C666.53 26.474 666.716 26.5533 666.866 26.712C667.024 26.8613 667.104 27.048 667.104 27.272C667.104 27.496 667.024 27.6873 666.866 27.846C666.716 27.9953 666.53 28.07 666.306 28.07Z" fill="black"/>
<path d="M680.49 28L676.808 18.2H678.082L681.176 26.754L684.298 18.2H685.544L681.862 28H680.49ZM687.532 19.516C687.298 19.516 687.102 19.4413 686.944 19.292C686.794 19.1333 686.72 18.9373 686.72 18.704C686.72 18.48 686.794 18.2933 686.944 18.144C687.102 17.9947 687.298 17.92 687.532 17.92C687.756 17.92 687.947 17.9947 688.106 18.144C688.264 18.2933 688.344 18.48 688.344 18.704C688.344 18.9373 688.264 19.1333 688.106 19.292C687.947 19.4413 687.756 19.516 687.532 19.516ZM686.944 28V21.056H688.12V28H686.944ZM693.289 28.168C692.627 28.168 692.039 28.0187 691.525 27.72C691.012 27.412 690.606 26.9873 690.307 26.446C690.018 25.9047 689.873 25.2653 689.873 24.528C689.873 23.8 690.018 23.1653 690.307 22.624C690.597 22.0733 690.998 21.6487 691.511 21.35C692.034 21.042 692.636 20.888 693.317 20.888C693.989 20.888 694.568 21.042 695.053 21.35C695.548 21.6487 695.926 22.0453 696.187 22.54C696.449 23.0347 696.579 23.5667 696.579 24.136C696.579 24.2387 696.575 24.3413 696.565 24.444C696.565 24.5467 696.565 24.6633 696.565 24.794H691.035C691.063 25.326 691.185 25.7693 691.399 26.124C691.623 26.4693 691.899 26.7307 692.225 26.908C692.561 27.0853 692.916 27.174 693.289 27.174C693.775 27.174 694.181 27.062 694.507 26.838C694.834 26.614 695.072 26.3107 695.221 25.928H696.383C696.197 26.572 695.837 27.1087 695.305 27.538C694.783 27.958 694.111 28.168 693.289 28.168ZM693.289 21.882C692.729 21.882 692.23 22.0547 691.791 22.4C691.362 22.736 691.115 23.2307 691.049 23.884H695.417C695.389 23.2587 695.175 22.7687 694.773 22.414C694.372 22.0593 693.877 21.882 693.289 21.882ZM699.264 28L697.234 21.056H698.41L699.88 26.502L701.504 21.056H702.834L704.472 26.502L705.928 21.056H707.118L705.088 28H703.884L702.176 22.274L700.468 28H699.264ZM714.868 28C714.234 28 713.734 27.846 713.37 27.538C713.006 27.23 712.824 26.6747 712.824 25.872V22.05H711.62V21.056H712.824L712.978 19.39H714V21.056H716.044V22.05H714V25.872C714 26.3107 714.089 26.6093 714.266 26.768C714.444 26.9173 714.756 26.992 715.204 26.992H715.932V28H714.868ZM717.538 28V17.92H718.714V22.246C718.948 21.8167 719.279 21.4853 719.708 21.252C720.138 21.0093 720.604 20.888 721.108 20.888C721.911 20.888 722.555 21.14 723.04 21.644C723.526 22.1387 723.768 22.904 723.768 23.94V28H722.606V24.066C722.606 22.6193 722.023 21.896 720.856 21.896C720.25 21.896 719.741 22.1153 719.33 22.554C718.92 22.9833 718.714 23.5993 718.714 24.402V28H717.538ZM728.672 28.168C728.009 28.168 727.421 28.0187 726.908 27.72C726.395 27.412 725.989 26.9873 725.69 26.446C725.401 25.9047 725.256 25.2653 725.256 24.528C725.256 23.8 725.401 23.1653 725.69 22.624C725.979 22.0733 726.381 21.6487 726.894 21.35C727.417 21.042 728.019 20.888 728.7 20.888C729.372 20.888 729.951 21.042 730.436 21.35C730.931 21.6487 731.309 22.0453 731.57 22.54C731.831 23.0347 731.962 23.5667 731.962 24.136C731.962 24.2387 731.957 24.3413 731.948 24.444C731.948 24.5467 731.948 24.6633 731.948 24.794H726.418C726.446 25.326 726.567 25.7693 726.782 26.124C727.006 26.4693 727.281 26.7307 727.608 26.908C727.944 27.0853 728.299 27.174 728.672 27.174C729.157 27.174 729.563 27.062 729.89 26.838C730.217 26.614 730.455 26.3107 730.604 25.928H731.766C731.579 26.572 731.22 27.1087 730.688 27.538C730.165 27.958 729.493 28.168 728.672 28.168ZM728.672 21.882C728.112 21.882 727.613 22.0547 727.174 22.4C726.745 22.736 726.497 23.2307 726.432 23.884H730.8C730.772 23.2587 730.557 22.7687 730.156 22.414C729.755 22.0593 729.26 21.882 728.672 21.882ZM740.418 28.168C739.755 28.168 739.158 28.0187 738.626 27.72C738.103 27.412 737.688 26.9873 737.38 26.446C737.081 25.8953 736.932 25.256 736.932 24.528C736.932 23.8 737.081 23.1653 737.38 22.624C737.688 22.0733 738.103 21.6487 738.626 21.35C739.158 21.042 739.755 20.888 740.418 20.888C741.239 20.888 741.93 21.1027 742.49 21.532C743.059 21.9613 743.418 22.5353 743.568 23.254H742.364C742.27 22.8247 742.042 22.4933 741.678 22.26C741.314 22.0173 740.889 21.896 740.404 21.896C740.012 21.896 739.643 21.994 739.298 22.19C738.952 22.386 738.672 22.68 738.458 23.072C738.243 23.464 738.136 23.9493 738.136 24.528C738.136 25.1067 738.243 25.592 738.458 25.984C738.672 26.376 738.952 26.6747 739.298 26.88C739.643 27.076 740.012 27.174 740.404 27.174C740.889 27.174 741.314 27.0573 741.678 26.824C742.042 26.5813 742.27 26.2407 742.364 25.802H743.568C743.428 26.502 743.073 27.0713 742.504 27.51C741.934 27.9487 741.239 28.168 740.418 28.168ZM748.374 28.168C747.721 28.168 747.133 28.0187 746.61 27.72C746.087 27.4213 745.672 27.0013 745.364 26.46C745.065 25.9093 744.916 25.2653 744.916 24.528C744.916 23.7907 745.07 23.1513 745.378 22.61C745.686 22.0593 746.101 21.6347 746.624 21.336C747.156 21.0373 747.749 20.888 748.402 20.888C749.055 20.888 749.643 21.0373 750.166 21.336C750.689 21.6347 751.099 22.0593 751.398 22.61C751.706 23.1513 751.86 23.7907 751.86 24.528C751.86 25.2653 751.706 25.9093 751.398 26.46C751.09 27.0013 750.67 27.4213 750.138 27.72C749.615 28.0187 749.027 28.168 748.374 28.168ZM748.374 27.16C748.775 27.16 749.149 27.062 749.494 26.866C749.839 26.67 750.119 26.376 750.334 25.984C750.549 25.592 750.656 25.1067 750.656 24.528C750.656 23.9493 750.549 23.464 750.334 23.072C750.129 22.68 749.853 22.386 749.508 22.19C749.163 21.994 748.794 21.896 748.402 21.896C748.001 21.896 747.627 21.994 747.282 22.19C746.937 22.386 746.657 22.68 746.442 23.072C746.227 23.464 746.12 23.9493 746.12 24.528C746.12 25.1067 746.227 25.592 746.442 25.984C746.657 26.376 746.932 26.67 747.268 26.866C747.613 27.062 747.982 27.16 748.374 27.16ZM753.495 28V21.056H754.559L754.643 22.064C754.867 21.6907 755.166 21.4013 755.539 21.196C755.913 20.9907 756.333 20.888 756.799 20.888C757.35 20.888 757.821 21 758.213 21.224C758.615 21.448 758.923 21.7887 759.137 22.246C759.38 21.826 759.711 21.4947 760.131 21.252C760.561 21.0093 761.023 20.888 761.517 20.888C762.348 20.888 763.011 21.14 763.505 21.644C764 22.1387 764.247 22.904 764.247 23.94V28H763.085V24.066C763.085 23.3473 762.941 22.806 762.651 22.442C762.362 22.078 761.947 21.896 761.405 21.896C760.845 21.896 760.379 22.1153 760.005 22.554C759.641 22.9833 759.459 23.5993 759.459 24.402V28H758.283V24.066C758.283 23.3473 758.139 22.806 757.849 22.442C757.56 22.078 757.145 21.896 756.603 21.896C756.053 21.896 755.591 22.1153 755.217 22.554C754.853 22.9833 754.671 23.5993 754.671 24.402V28H753.495ZM766.019 31.08V21.056H767.083L767.195 22.204C767.419 21.868 767.736 21.5647 768.147 21.294C768.567 21.0233 769.099 20.888 769.743 20.888C770.433 20.888 771.035 21.0467 771.549 21.364C772.062 21.6813 772.459 22.1153 772.739 22.666C773.028 23.2167 773.173 23.842 773.173 24.542C773.173 25.242 773.028 25.8673 772.739 26.418C772.459 26.9593 772.057 27.3887 771.535 27.706C771.021 28.014 770.419 28.168 769.729 28.168C769.159 28.168 768.651 28.0513 768.203 27.818C767.764 27.5847 767.428 27.258 767.195 26.838V31.08H766.019ZM769.603 27.146C770.069 27.146 770.48 27.0387 770.835 26.824C771.189 26.6 771.469 26.292 771.675 25.9C771.88 25.508 771.983 25.0507 771.983 24.528C771.983 24.0053 771.88 23.548 771.675 23.156C771.469 22.764 771.189 22.4607 770.835 22.246C770.48 22.022 770.069 21.91 769.603 21.91C769.136 21.91 768.725 22.022 768.371 22.246C768.016 22.4607 767.736 22.764 767.531 23.156C767.325 23.548 767.223 24.0053 767.223 24.528C767.223 25.0507 767.325 25.508 767.531 25.9C767.736 26.292 768.016 26.6 768.371 26.824C768.725 27.0387 769.136 27.146 769.603 27.146ZM774.81 28V17.92H775.986V28H774.81ZM781.035 28.168C780.373 28.168 779.785 28.0187 779.271 27.72C778.758 27.412 778.352 26.9873 778.053 26.446C777.764 25.9047 777.619 25.2653 777.619 24.528C777.619 23.8 777.764 23.1653 778.053 22.624C778.343 22.0733 778.744 21.6487 779.257 21.35C779.78 21.042 780.382 20.888 781.063 20.888C781.735 20.888 782.314 21.042 782.799 21.35C783.294 21.6487 783.672 22.0453 783.933 22.54C784.195 23.0347 784.325 23.5667 784.325 24.136C784.325 24.2387 784.321 24.3413 784.311 24.444C784.311 24.5467 784.311 24.6633 784.311 24.794H778.781C778.809 25.326 778.931 25.7693 779.145 26.124C779.369 26.4693 779.645 26.7307 779.971 26.908C780.307 27.0853 780.662 27.174 781.035 27.174C781.521 27.174 781.927 27.062 782.253 26.838C782.58 26.614 782.818 26.3107 782.967 25.928H784.129C783.943 26.572 783.583 27.1087 783.051 27.538C782.529 27.958 781.857 28.168 781.035 28.168ZM781.035 21.882C780.475 21.882 779.976 22.0547 779.537 22.4C779.108 22.736 778.861 23.2307 778.795 23.884H783.163C783.135 23.2587 782.921 22.7687 782.519 22.414C782.118 22.0593 781.623 21.882 781.035 21.882ZM788.396 28C787.761 28 787.262 27.846 786.898 27.538C786.534 27.23 786.352 26.6747 786.352 25.872V22.05H785.148V21.056H786.352L786.506 19.39H787.528V21.056H789.572V22.05H787.528V25.872C787.528 26.3107 787.616 26.6093 787.794 26.768C787.971 26.9173 788.284 26.992 788.732 26.992H789.46V28H788.396ZM793.996 28.168C793.334 28.168 792.746 28.0187 792.232 27.72C791.719 27.412 791.313 26.9873 791.014 26.446C790.725 25.9047 790.58 25.2653 790.58 24.528C790.58 23.8 790.725 23.1653 791.014 22.624C791.304 22.0733 791.705 21.6487 792.218 21.35C792.741 21.042 793.343 20.888 794.024 20.888C794.696 20.888 795.275 21.042 795.76 21.35C796.255 21.6487 796.633 22.0453 796.894 22.54C797.156 23.0347 797.286 23.5667 797.286 24.136C797.286 24.2387 797.282 24.3413 797.272 24.444C797.272 24.5467 797.272 24.6633 797.272 24.794H791.742C791.77 25.326 791.892 25.7693 792.106 26.124C792.33 26.4693 792.606 26.7307 792.932 26.908C793.268 27.0853 793.623 27.174 793.996 27.174C794.482 27.174 794.888 27.062 795.214 26.838C795.541 26.614 795.779 26.3107 795.928 25.928H797.09C796.904 26.572 796.544 27.1087 796.012 27.538C795.49 27.958 794.818 28.168 793.996 28.168ZM793.996 21.882C793.436 21.882 792.937 22.0547 792.498 22.4C792.069 22.736 791.822 23.2307 791.756 23.884H796.124C796.096 23.2587 795.882 22.7687 795.48 22.414C795.079 22.0593 794.584 21.882 793.996 21.882ZM802.62 28V18.2H803.796V22.638L807.884 18.2H809.368L805.728 22.106L809.424 28H807.996L804.888 23.016L803.796 24.178V28H802.62ZM811.412 19.516C811.179 19.516 810.983 19.4413 810.824 19.292C810.675 19.1333 810.6 18.9373 810.6 18.704C810.6 18.48 810.675 18.2933 810.824 18.144C810.983 17.9947 811.179 17.92 811.412 17.92C811.636 17.92 811.828 17.9947 811.986 18.144C812.145 18.2933 812.224 18.48 812.224 18.704C812.224 18.9373 812.145 19.1333 811.986 19.292C811.828 19.4413 811.636 19.516 811.412 19.516ZM810.824 28V21.056H812V28H810.824ZM816.792 28C816.157 28 815.658 27.846 815.294 27.538C814.93 27.23 814.748 26.6747 814.748 25.872V22.05H813.544V21.056H814.748L814.902 19.39H815.924V21.056H817.968V22.05H815.924V25.872C815.924 26.3107 816.013 26.6093 816.19 26.768C816.367 26.9173 816.68 26.992 817.128 26.992H817.856V28H816.792Z" fill="black"/>
<path d="M835.325 23.4245L831.725 27.0245C831.612 27.1372 831.459 27.2006 831.3 27.2006C831.14 27.2006 830.987 27.1372 830.875 27.0245C830.762 26.9118 830.698 26.7589 830.698 26.5995C830.698 26.4401 830.762 26.2872 830.875 26.1745L833.45 23.6H826.1C825.941 23.6 825.788 23.5368 825.676 23.4243C825.563 23.3118 825.5 23.1591 825.5 23C825.5 22.8409 825.563 22.6883 825.676 22.5758C825.788 22.4632 825.941 22.4 826.1 22.4H833.45L830.875 19.824C830.763 19.7113 830.699 19.5584 830.699 19.399C830.699 19.2396 830.763 19.0867 830.875 18.974C830.988 18.8613 831.141 18.798 831.3 18.798C831.46 18.798 831.613 18.8613 831.725 18.974L835.325 22.574C835.381 22.6298 835.426 22.6962 835.456 22.7692C835.486 22.8422 835.502 22.9204 835.502 22.9995C835.502 23.0785 835.486 23.1567 835.456 23.2297C835.425 23.3026 835.381 23.3688 835.325 23.4245Z" fill="black"/>
<defs>
<linearGradient id="paint0_linear_28_1026" x1="0" y1="23" x2="1200" y2="23" gradientUnits="userSpaceOnUse">
<stop stop-color="#FEECFF"/>
<stop offset="0.11706" stop-color="#FECAFF"/>
<stop offset="0.268012" stop-color="#FEB5FF"/>
<stop offset="0.401811" stop-color="#FFDBE7"/>
<stop offset="0.492154" stop-color="#FFF4D6"/>
<stop offset="0.587071" stop-color="#F3FCD7"/>
<stop offset="0.712864" stop-color="#D2F5EE"/>
<stop offset="0.844376" stop-color="#C3EFFF"/>
<stop offset="1" stop-color="#FBEFFF"/>
</linearGradient>
</defs>
</svg>
